# AST/ASF file generated using VICON BodyLanguage
# -----------------------------------------------
:version 1.10
:name VICON
:units
  mass 1.0
  length 0.45
  angle deg
:documentation
   .ast/.asf automatically generated from VICON data using
   VICON BodyBuilder and BodyLanguage model FoxedUp or BRILLIANT.MOD
:root
   order TX TY TZ RX RY RZ
   axis XYZ
   position 0 0 0  
   orientation 0 0 0 
:bonedata
  begin
     id 1 
     name lhipjoint
     direction 0.822369 -0.411937 0.392449 
     length 3.8167 
     axis 0 0 0  XYZ
  end
  begin
     id 2 
     name lfemur
     direction 0.34202 -0.939693 0  
     length 6.16791  
     axis 0 0 20  XYZ
    dof rx ry rz
    limits (-160.0 20.0)
           (-70.0 70.0)
           (-60.0 70.0)
  end
  begin
     id 3 
     name ltibia
     direction 0.34202 -0.939693 0   
     length 7.07101   
     axis 0 0 20   XYZ
    dof rx
    limits (-10.0 170.0)
  end
  begin
     id 4 
     name lfoot
     direction 0.028254 -0.0776273 0.996582   
     length 1.66799   
     axis -90 7.62852e-016 20   XYZ
    dof rx rz
    limits (-45.0 90.0)
           (-70.0 20.0)
  end
  begin
     id 5 
     name ltoes
     direction 1.53483e-011 -4.21688e-011 1   
     length 0.851674   
     axis -90 7.62852e-016 20   XYZ
    dof rx
    limits (-90.0 20.0)
  end
  begin
     id 6 
     name rhipjoint
     direction -0.822466 -0.411836 0.392353   
     length 3.81764  
     axis 0 0 0  XYZ 
  end
  begin
     id 7 
     name rfemur
     direction -0.34202 -0.939693 0   
     length 6.28636   
     axis 0 0 -20   XYZ
    dof rx ry rz
    limits (-160.0 20.0)
           (-70.0 70.0)
           (-70.0 60.0)
  end
  begin
     id 8 
     name rtibia
     direction -0.34202 -0.939693 0   
     length 6.85621   
     axis 0 0 -20   XYZ
    dof rx
    limits (-10.0 170.0)
 end
 begin
     id 9 
     name rfoot
     direction -0.0553036 -0.151945 0.98684   
     length 1.57293  
     axis -90 -7.62852e-016 -20   XYZ
    dof rx rz
    limits (-45.0 90.0)
           (-20.0 70.0)
  end
  begin
     id 10 
     name rtoes
     direction -1.53592e-011 -4.21964e-011 1   
     length 0.802812   
     axis -90 -7.62852e-016 -20   XYZ
    dof rx
    limits (-90.0 20.0)
  end
  begin
     id 11 
     name lowerback
     direction 0.00654913 0.996475 -0.0836396   
     length 1.97212   
     axis 0 0 0   XYZ
    dof rx ry rz
    limits (-20.0 45.0)
           (-30.0 30.0)
           (-30.0 30.0)
  end
  begin
     id 12 
     name upperback
     direction 0.0111875 0.994527 0.103877   
     length 1.89704   
     axis 0 0 0   XYZ
    dof rx ry rz
    limits (-20.0 45.0)
           (-30.0 30.0)
           (-30.0 30.0)
  end
  begin
     id 13 
     name thorax
     direction 0.00473652 0.989004 0.147814   
     length 1.94516   
     axis 0 0 0   XYZ
    dof rx ry rz
    limits (-20.0 45.0)
           (-30.0 30.0)
           (-30.0 30.0)
  end
  begin
     id 14 
     name lowerneck
     direction -0.00925808 0.999011 0.0434791   
     length 1.81771   
     axis 0 0 0   XYZ
    dof rx ry rz
    limits (-20.0 45.0)
           (-30.0 30.0)
           (-30.0 30.0)
  end
  begin
     id 15 
     name upperneck
     direction 0.00451595 0.964412 -0.264365   
     length 1.80434   
     axis 0 0 0   XYZ
    dof rx ry rz
    limits (-20.0 45.0)
           (-30.0 30.0)
           (-30.0 30.0)
  end
  begin
     id 16
     name head
     direction -0.00110849 0.995756 -0.0920241  
     length 1.84006  
     axis 0 0 0   XYZ
    dof rx ry rz
    limits (-20.0 45.0)
           (-30.0 30.0)
           (-30.0 30.0)
  end
  begin
     id 17 
     name lclavicle
     direction 0.921253 0.385213 0.0538957  
     length 3.67415  
     axis 0 0 0   XYZ
    dof ry rz
    limits (-20.0 10.0)
           (0.0 20.0)
  end
  begin
     id 18 
     name lhumerus
     direction 1 -4.48961e-011 6.73441e-028   
     length 4.32712   
     axis 180 -30 -90   XYZ
    dof rx ry rz
    limits (-60.0 90.0)
           (-90.0 90.0)
           (-90.0 90.0)
  end
  begin
     id 19
     name lradius
     direction 1 -4.48985e-011 -9.53507e-028   
     length 3.28587   
     axis 180 -30 -90   XYZ
    dof rx
    limits (-10.0 170.0)
  end
  begin
     id 20
     name lwrist
     direction 1 -4.48951e-011 -4.67472e-027   
     length 1.64293   
     axis 1.65735e-015 90 90   XYZ
    dof ry
    limits (-180.0 0.0)
 end
  begin
     id 21 
     name lhand
     direction 1 -4.48946e-011 -9.34945e-027   
     length 0.433158   
     axis 5.96574e-015 90 90   XYZ
    dof rx rz
    limits (-90.0 90.0)
           (-45.0 45.0)
  end
  begin
     id 22 
     name lfingers
     direction 1 -4.48882e-011 -1.86989e-026   
     length 0.349224   
     axis 1.19315e-014 90 90   XYZ
    dof rx
    limits (0.0 90.0)
  end
  begin
     id 23
     name lthumb
     direction 0.707107 -6.3493e-011 0.707107   
     length 0.501417   
     axis -90 45 2.85299e-015   XYZ
    dof rx rz
    limits (-45.0 45.0)
           (-45.0 45.0)
  end
  begin
     id 24 
     name rclavicle
     direction -0.884378 0.46502 -0.0403866   
     length 3.50218  
     axis 0 0 0   XYZ 
    dof ry rz
    limits (-10.0 20.0)
           (-20.0 0.0)
  end
  begin
     id 25 
     name rhumerus
     direction -1 -4.48964e-011 1.58188e-027  
     length 4.29104   
     axis 180 30 90   XYZ
    dof rx ry rz
    limits (-90.0 60.0)
           (-90.0 90.0)
           (-90.0 90.0)
  end
  begin
     id 26 
     name rradius
     direction -1 -4.48978e-011 -1.9722e-027   
     length 3.2272   
     axis 180 30 90   XYZ
    dof rx
    limits (-10.0 170.0)
  end
  begin
     id 27 
     name rwrist
     direction -1 -4.48969e-011 -4.67472e-027   
     length 1.6136   
     axis 1.65735e-015 -90 -90   XYZ
    dof ry
    limits (-180.0 0.0)
  end
  begin
     id 28
     name rhand
     direction -1 -4.48846e-011 -9.34945e-027   
     length 0.543623   
     axis 5.96574e-015 -90 -90   XYZ
    dof rx rz
    limits (-90.0 90.0)
           (-45.0 45.0)
  end
  begin
     id 29
     name rfingers
     direction -1 -4.49074e-011 -1.86989e-026   
     length 0.438283   
     axis 1.19315e-014 -90 -90   XYZ
    dof rx
    limits (0.0 90.0)
  end
  begin
     id 30
     name rthumb
     direction -0.707107 -6.34834e-011 0.707107   
     length 0.629289   
     axis -90 -45 -2.85299e-015   XYZ
    dof rx rz
    limits (-45.0 45.0)
           (-45.0 45.0)
  end
:hierarchy
  begin
    root lhipjoint rhipjoint lowerback
    lhipjoint lfemur
    lfemur ltibia
    ltibia lfoot
    lfoot ltoes
    rhipjoint rfemur
    rfemur rtibia
    rtibia rfoot
    rfoot rtoes
    lowerback upperback
    upperback thorax
    thorax lowerneck lclavicle rclavicle
    lowerneck upperneck
    upperneck head
    lclavicle lhumerus
    lhumerus lradius
    lradius lwrist
    lwrist lhand lthumb
    lhand lfingers
    rclavicle rhumerus
    rhumerus rradius
    rradius rwrist
    rwrist rhand rthumb
    rhand rfingers
  end

#!OML:ASF H:\GeneralSubjects\Female5\Project 1\Capture day 1\Session 1\Female5.ASF
:FULLY-SPECIFIED
:DEGREES
67
root -21.8699 15.2533 -3.19242 -61.7235 75.6981 -73.656
lowerback 6.90571 1.98531 10.9447
upperback -9.52268 5.31054 4.99442
thorax -14.1253 1.91076 -1.5457
lowerneck -20.4876 -1.03155 -1.83095
upperneck 34.2275 1.45554 -3.63096
head 15.5347 0.152251 -0.85779
rclavicle 1.38155e-014 3.22031e-014
rhumerus -30.9675 30.9433 -77.478
rradius 60.2528
rwrist -11.1849
rhand -18.084 -22.0783
rfingers 7.12502
rthumb 8.18923 -51.8996
lclavicle 1.38155e-014 3.22031e-014
lhumerus -55.4299 9.53252 75.52
lradius 32.7007
lwrist -8.69718
lhand -22.9189 33.6807
lfingers 7.12502
lthumb 3.52141 63.6314
rfemur 15.5281 15.8373 48.104
rtibia -3.03585
rfoot -18.7879 -17.2484
rtoes -27.9395
lfemur -42.5559 -10.524 -0.888452
ltibia 11.7105
lfoot -26.9242 28.8495
ltoes -61.6202
68
root -21.5157 15.2157 -3.26087 -60.1378 75.4302 -71.9019
lowerback 6.87528 2.02012 10.9297
upperback -9.60655 5.35234 4.9297
thorax -14.1973 1.92179 -1.61465
lowerneck -20.5313 -0.84789 -1.65354
upperneck 34.2611 1.61949 -3.51963
head 15.5612 0.259293 -0.81088
rclavicle -1.2921e-015 -5.20816e-014
rhumerus -30.6228 30.0602 -76.7605
rradius 62.4819
rwrist -10.5261
rhand -17.7862 -21.9924
rfingers 7.12502
rthumb 8.47665 -51.8023
lclavicle -1.2921e-015 -5.20816e-014
lhumerus -55.6743 10.0365 74.8303
lradius 32.0678
lwrist -9.22262
lhand -22.6835 33.594
lfingers 7.12502
lthumb 3.74874 63.5408
rfemur 16.5609 15.792 47.9842
rtibia -1.99757
rfoot -19.5369 -16.2973
rtoes -25.1694
lfemur -42.5137 -7.05241 -3.99919
ltibia 16.5061
lfoot -25.2028 23.4339
ltoes -60.3493
69
root -21.1546 15.1914 -3.32887 -58.8539 75.6963 -70.5551
lowerback 6.64649 2.00197 10.4351
upperback -9.73282 5.21157 4.76042
thorax -14.224 1.88975 -1.49895
lowerneck -20.6117 -0.677448 -1.30739
upperneck 34.483 1.79254 -3.58875
head 15.692 0.36882 -0.870192
rclavicle -1.41137e-014 -3.02153e-014
rhumerus -30.4789 29.0782 -75.9836
rradius 65.0773
rwrist -10.0442
rhand -17.8549 -22.496
rfingers 7.12502
rthumb 8.41034 -52.3086
lclavicle -1.41137e-014 -3.02153e-014
lhumerus -55.8685 10.5605 74.1469
lradius 31.4697
lwrist -10.0371
lhand -22.1241 33.5259
lfingers 7.12502
lthumb 4.2889 63.4625
rfemur 17.2539 15.5435 47.2761
rtibia -0.627325
rfoot -19.5556 -15.5291
rtoes -23.7083
lfemur -43.2831 -5.48936 -5.87325
ltibia 20.1673
lfoot -21.8118 23.0035
ltoes -61.4127
70
root -20.7908 15.1917 -3.39445 -57.9754 76.2333 -69.5803
lowerback 6.37403 1.96541 9.68984
upperback -9.81089 4.99503 4.57134
thorax -14.1791 1.84984 -1.25379
lowerneck -20.8289 -0.540239 -1.05616
upperneck 34.9066 1.97148 -3.63379
head 15.9565 0.472098 -0.903894
rclavicle -3.55825e-014 1.43125e-014
rhumerus -30.4092 27.9039 -75.0209
rradius 67.9688
rwrist -9.71331
rhand -18.1321 -22.6741
rfingers 7.12502
rthumb 8.14288 -52.4972
lclavicle -3.55825e-014 1.43125e-014
lhumerus -55.8835 10.8426 73.8197
lradius 30.9846
lwrist -10.6476
lhand -21.5193 34.387
lfingers 7.12502
lthumb 4.87294 64.311
rfemur 17.5552 15.0367 46.1891
rtibia 1.28894
rfoot -18.2499 -15.129
rtoes -24.9714
lfemur -44.1969 -4.03026 -8.04145
ltibia 24.0865
lfoot -17.279 22.0716
ltoes -61.431
71
root -20.4314 15.2168 -3.45872 -57.3706 76.831 -68.8587
lowerback 6.21601 1.91377 8.92237
upperback -9.90193 4.77504 4.36614
thorax -14.2211 1.80521 -1.01815
lowerneck -21.0154 -0.438049 -0.773931
upperneck 35.3574 2.13226 -3.78307
head 16.2346 0.558971 -0.991797
rclavicle 1.31695e-015 -4.41302e-014
rhumerus -30.4906 26.5865 -74.0038
rradius 71.0454
rwrist -9.15972
rhand -18.3504 -22.4897
rfingers 7.12502
rthumb 7.93215 -52.3209
lclavicle 1.31695e-015 -4.41302e-014
lhumerus -55.7233 11.1068 73.5266
lradius 30.4088
lwrist -11.2628
lhand -21.306 35.0386
lfingers 7.12502
lthumb 5.07888 64.9578
rfemur 17.42 14.3139 44.9043
rtibia 3.80468
rfoot -15.2724 -14.9992
rtoes -30.8767
lfemur -44.5203 -3.17509 -9.88524
ltibia 27.3398
lfoot -17.121 20.8855
ltoes -58.2985
72
root -20.0638 15.2505 -3.52484 -57.194 77.7861 -68.5308
lowerback 6.0192 1.79914 7.96647
upperback -10.0542 4.43507 4.05977
thorax -14.3174 1.71443 -0.767761
lowerneck -20.746 -0.43207 -0.610132
upperneck 35.4801 2.13183 -3.8708
head 16.2341 0.578449 -1.05816
rclavicle -7.45443e-017 5.20816e-014
rhumerus -30.895 25.2617 -72.9902
rradius 74.2831
rwrist -8.33092
rhand -18.9575 -22.4541
rfingers 7.12502
rthumb 7.3462 -52.3066
lclavicle -7.45443e-017 5.20816e-014
lhumerus -55.7011 11.1669 73.3499
lradius 30.0976
lwrist -11.714
lhand -21.2299 35.1955
lfingers 7.12502
lthumb 5.15233 65.1129
rfemur 17.2719 13.2074 43.2462
rtibia 6.334
rfoot -14.831 -13.9467
rtoes -26.4661
lfemur -43.8204 -2.98012 -12.0371
ltibia 29.0186
lfoot -16.9908 19.8644
ltoes -56.0367
73
root -19.6837 15.2899 -3.59613 -58.0598 78.9802 -69.1008
lowerback 5.73095 1.62823 6.97235
upperback -10.134 3.99304 3.73045
thorax -14.2673 1.58392 -0.498802
lowerneck -20.5443 -0.523622 -0.459336
upperneck 35.7446 2.0839 -4.14209
head 16.3247 0.551369 -1.21418
rclavicle -8.19987e-015 5.56597e-015
rhumerus -31.2949 23.822 -71.8041
rradius 77.6708
rwrist -7.17241
rhand -19.6562 -22.6875
rfingers 7.12502
rthumb 6.67168 -52.5624
lclavicle -8.19987e-015 5.56597e-015
lhumerus -55.5995 10.9966 73.5026
lradius 30.0407
lwrist -11.8971
lhand -21.1169 35.7614
lfingers 7.12502
lthumb 5.2615 65.6761
rfemur 17.1421 11.4076 41.2051
rtibia 8.87884
rfoot -13.323 -13.0588
rtoes -22.3262
lfemur -41.9225 -3.34481 -14.4138
ltibia 29.0474
lfoot -16.8872 18.1372
ltoes -56.9044
74
root -19.3054 15.3425 -3.67498 -59.416 80.0309 -70.043
lowerback 5.53626 1.46105 6.19526
upperback -10.1101 3.59414 3.45464
thorax -14.1392 1.45586 -0.29999
lowerneck -20.7864 -0.752154 -0.845954
upperneck 36.3312 1.9117 -3.99745
head 16.6766 0.451531 -1.12616
rclavicle 8.77137e-015 -1.45113e-014
rhumerus -31.4284 22.3575 -70.5108
rradius 81.1434
rwrist -5.98055
rhand -19.8971 -22.7382
rfingers 7.12502
rthumb 6.43912 -52.6203
lclavicle 8.77137e-015 -1.45113e-014
lhumerus -55.244 10.7727 73.8694
lradius 30.058
lwrist -11.9741
lhand -21.2918 37.0709
lfingers 7.12502
lthumb 5.09258 66.9897
rfemur 16.6218 9.14957 38.9566
rtibia 11.9149
rfoot -9.83002 -12.7217
rtoes -19.0951
lfemur -39.1744 -3.96255 -16.4904
ltibia 27.9493
lfoot -17.1578 16.9484
ltoes -57.6942
75
root -18.9381 15.4069 -3.7642 -60.2822 81.0218 -70.4913
lowerback 5.49577 1.32913 5.56434
upperback -10.1043 3.2825 3.17462
thorax -14.1194 1.34969 -0.205603
lowerneck -20.6502 -0.867115 -0.758342
upperneck 36.5345 1.93152 -4.46855
head 16.7612 0.412675 -1.34863
rclavicle 2.16924e-014 3.06128e-014
rhumerus -31.4902 21.0221 -69.2152
rradius 84.6345
rwrist -5.22384
rhand -20.2275 -22.1602
rfingers 7.12502
rthumb 6.1202 -52.0518
lclavicle 2.16924e-014 3.06128e-014
lhumerus -54.7921 10.6472 74.2724
lradius 30.0454
lwrist -11.9435
lhand -21.7593 37.3452
lfingers 7.12502
lthumb 4.64117 67.2744
rfemur 15.5787 6.80628 36.4832
rtibia 15.5736
rfoot -4.87476 -13.1315
rtoes -17.9702
lfemur -36.0443 -4.8309 -18.4019
ltibia 26.1177
lfoot -17.6132 16.2442
ltoes -58.5482
76
root -18.5799 15.4781 -3.86239 -60.4952 81.9909 -70.1817
lowerback 5.58701 1.243 5.044
upperback -10.0612 3.05227 2.88394
thorax -14.1294 1.26766 -0.200745
lowerneck -20.4465 -0.988292 -0.800352
upperneck 36.6983 1.9299 -4.79134
head 16.8048 0.36967 -1.48591
rclavicle -5.2181e-016 -1.0138e-014
rhumerus -31.3292 19.867 -67.805
rradius 88.0888
rwrist -4.93732
rhand -21.0282 -21.4673
rfingers 7.12502
rthumb 5.34712 -51.3798
lclavicle -5.2181e-016 -1.0138e-014
lhumerus -54.3089 10.0871 75.1013
lradius 30.3535
lwrist -11.3908
lhand -21.7878 36.6344
lfingers 7.12502
lthumb 4.61367 66.5641
rfemur 14.2351 4.68267 33.9719
rtibia 19.8962
rfoot -0.197697 -14.1152
rtoes -15.5963
lfemur -32.6345 -5.94124 -20.2434
ltibia 23.9175
lfoot -18.0991 15.775
ltoes -59.5402
77
root -18.2317 15.5523 -3.96505 -59.9061 82.9446 -68.9889
lowerback 5.73956 1.18385 4.55045
upperback -9.92108 2.85276 2.58794
thorax -14.0588 1.19653 -0.221964
lowerneck -20.2443 -1.03224 -0.849939
upperneck 36.7261 1.97951 -4.99335
head 16.7764 0.361616 -1.55513
rclavicle -6.75868e-015 -2.72335e-014
rhumerus -30.6923 18.8149 -66.2225
rradius 91.4673
rwrist -4.85893
rhand -22.0165 -21.1464
rfingers 7.12502
rthumb 4.39283 -51.0808
lclavicle -6.75868e-015 -2.72335e-014
lhumerus -53.7952 8.98755 76.3178
lradius 31.318
lwrist -10.7564
lhand -20.0829 37.1167
lfingers 7.12502
lthumb 6.25981 67.0042
rfemur 12.698 3.09778 31.6205
rtibia 24.5646
rfoot 3.95101 -15.8591
rtoes -10.385
lfemur -29.2723 -7.06058 -22.0853
ltibia 21.8669
lfoot -18.7333 15.6104
ltoes -60.2592
78
root -17.8994 15.624 -4.0635 -58.9303 83.9461 -67.4871
lowerback 5.96542 1.11012 3.94831
upperback -9.80409 2.62729 2.29729
thorax -14.0681 1.12362 -0.172932
lowerneck -20.1158 -1.08923 -1.01197
upperneck 36.6311 2.04252 -5.21297
head 16.7035 0.33592 -1.60792
rclavicle -3.35449e-015 4.77083e-015
rhumerus -29.7624 17.7425 -64.5295
rradius 94.7836
rwrist -4.86747
rhand -23.3239 -20.832
rfingers 7.12502
rthumb 3.1303 -50.7887
lclavicle -3.35449e-015 4.77083e-015
lhumerus -53.2696 7.92901 77.3994
lradius 32.4627
lwrist -10.5199
lhand -17.6556 38.3377
lfingers 7.12502
lthumb 8.60273 68.1424
rfemur 10.9129 1.96639 29.4903
rtibia 29.1172
rfoot 8.44623 -17.8249
rtoes -4.8897
lfemur -26.3304 -8.01176 -23.9757
ltibia 20.2691
lfoot -19.2165 15.609
ltoes -61.2313
79
root -17.5818 15.6857 -4.15135 -57.3038 84.8955 -65.4824
lowerback 6.19257 1.04632 3.23255
upperback -9.77087 2.41552 2.05344
thorax -14.1849 1.07376 -0.0103974
lowerneck -19.8668 -1.06575 -1.02717
upperneck 36.5007 2.16391 -5.4303
head 16.5848 0.359642 -1.67114
rclavicle -3.47873e-016 -2.64384e-014
rhumerus -28.6519 16.7155 -62.7733
rradius 97.9529
rwrist -4.87859
rhand -24.9472 -20.4822
rfingers 7.12502
rthumb 1.56255 -50.4563
lclavicle -3.47873e-016 -2.64384e-014
lhumerus -52.8631 6.36703 78.7573
lradius 33.7745
lwrist -9.44555
lhand -17.0358 39.1111
lfingers 7.12502
lthumb 9.20079 68.8903
rfemur 8.84432 1.09032 27.6288
rtibia 33.3103
rfoot 11.3252 -19.2379
rtoes -7.28323
lfemur -23.7274 -8.74942 -25.7436
ltibia 18.5677
lfoot -17.3666 17.6646
ltoes -64.3979
80
root -17.2753 15.7341 -4.23089 -53.6211 85.8438 -61.5924
lowerback 6.25908 1.00515 2.34472
upperback -9.7741 2.21013 1.83303
thorax -14.2487 1.05083 0.27762
lowerneck -19.4138 -0.980137 -0.900889
upperneck 36.2771 2.29396 -5.61018
head 16.3681 0.417738 -1.73585
rclavicle 4.17448e-015 8.94531e-015
rhumerus -27.2803 15.7659 -60.963
rradius 100.973
rwrist -4.83649
rhand -26.9002 -20.4426
rfingers 7.12502
rthumb -0.323663 -50.4221
lclavicle 4.17448e-015 8.94531e-015
lhumerus -52.394 4.7691 80.0335
lradius 35.0602
lwrist -8.32173
lhand -16.185 40.3578
lfingers 7.12502
lthumb 10.0217 70.0992
rfemur 6.40903 0.243309 25.8518
rtibia 37.2633
rfoot 12.174 -20.194
rtoes -8.50175
lfemur -21.3191 -9.22575 -27.5233
ltibia 17.0777
lfoot -16.8623 18.1222
ltoes -65.6646
81
root -16.9783 15.7717 -4.30467 -48.2535 86.7193 -56.0896
lowerback 6.23334 0.952785 1.47079
upperback -9.76439 1.99101 1.63644
thorax -14.2374 1.02366 0.589639
lowerneck -18.9162 -0.845953 -0.37881
upperneck 36.0744 2.47814 -6.10329
head 16.1652 0.512586 -1.99749
rclavicle 1.54058e-015 -6.95746e-015
rhumerus -25.6719 14.7458 -59.1873
rradius 103.76
rwrist -4.44873
rhand -29.7938 -20.1619
rfingers 7.12502
rthumb -3.11836 -50.1189
lclavicle 1.54058e-015 -6.95746e-015
lhumerus -51.7132 3.63129 80.8529
lradius 36.117
lwrist -8.17131
lhand -17.1191 39.6563
lfingers 7.12502
lthumb 9.1204 69.4391
rfemur 3.68042 -0.738501 24.2811
rtibia 40.9967
rfoot 8.38743 -20.8726
rtoes -14.0079
lfemur -19.0248 -9.47343 -29.2193
ltibia 15.623
lfoot -17.5735 17.4605
ltoes -65.6988
